# xmcd
#
# Track frame offsets:
#	150
#	13485
#	29345
#	43510
#	59036
#	76471
#	91406
#	106395
#	120233
#
# Disc length: 1850 seconds
# Revision: 0
# Processed by: cddbd v1.5.2PL0 Copyright (c) Steve Scherf et al.
# Submitted via: dBpowerAMP V12.0
#
DISCID=72073809
DTITLE=Alabama - Cheap Seats
DYEAR=1900
DGENRE=
TTITLE0=Still Goin' Strong
TTITLE1=T.L.C. A.S.A.P
TTITLE2=Katy Brought My Guitar Back Today
TTITLE3=On This Side Of The Moon
TTITLE4=The Cheap Seats
TTITLE5=Reckless
TTITLE6=That Feeling
TTITLE7=This Love's On Me
TTITLE8=Angels Amoung Us
EXTD=
EXTT0=
EXTT1=
EXTT2=
EXTT3=
EXTT4=
EXTT5=
EXTT6=
EXTT7=
EXTT8=
PLAYORDER=
